<svg xmlns="http://www.w3.org/2000/svg" viewBox="0 0 780.91 890.73"><defs><style>.cls-1{fill:#282830;}.cls-1,.cls-3,.cls-4{fill-rule:evenodd;}.cls-2{fill:#ebebc4;}.cls-3{fill:#e4ac3e;}.cls-4{fill:#d69f30;}</style></defs><g id="Layer_2" data-name="Layer 2"><g id="Layer_1-2" data-name="Layer 1"><polygon class="cls-1" points="593.83 623.62 187.08 623.62 187.08 658.99 129.61 658.99 129.61 890.73 651.31 890.73 651.31 658.99 593.83 658.99 593.83 623.62"/><rect class="cls-2" x="239.91" y="707.98" width="301.1" height="133.75"/><path class="cls-3" d="M636.94,35.37l4-35.37H139.32l4,35.37H43A37.33,37.33,0,0,0,6.59,64,245.68,245.68,0,0,0,0,120.59c0,112,75.74,208.57,183.71,247.85C206,446.8,268.39,493.54,338.53,508.71V623.62H442.39V508.51c69.76-15.36,131.72-61.95,154-139.77,108.4-39.11,184.5-135.88,184.5-248.15A246.22,246.22,0,0,0,774.33,64a37.33,37.33,0,0,0-36.39-28.61ZM52.17,120.59v-.39A37.34,37.34,0,0,1,89.61,83.12h59l25.6,228.38C101.13,273.86,52.17,202.15,52.17,120.59ZM605.94,311.88,631.59,83.12h93.92c1.74,12.67,3.24,24.58,3.24,37.47C728.75,202.42,679.47,274.35,605.94,311.88Z"/><path class="cls-4" d="M636.94,35.37l4-35.37H390.46V623.62h51.93V508.51c69.76-15.36,131.72-61.95,154-139.77,108.4-39.11,184.5-135.88,184.5-248.15A246.34,246.34,0,0,0,775,67.06a40.55,40.55,0,0,0-39.59-31.69Zm-31,276.51L631.59,83.12H691.3a37.35,37.35,0,0,1,37.45,37.08v.39C728.75,202.42,679.47,274.35,605.94,311.88Z"/><path d="M327.94,759.63a45.59,45.59,0,0,1-2.77-4.61c-.92-1.74-1.79-3.54-2.61-5.38a56.44,56.44,0,0,1-2.15-5.62,40.06,40.06,0,0,1-1.39-5.45l45.05-19.22h6.61v77.49h19.68a50.27,50.27,0,0,1,1.39,11.38,51.47,51.47,0,0,1-1.39,11.68h-65.8a51.47,51.47,0,0,1-1.39-11.68,50.27,50.27,0,0,1,1.39-11.38h20V753.17Z"/><path d="M412.46,739c1.87.76,3.55,1.52,5,2.3a15,15,0,0,1,3.83,2.8,11.09,11.09,0,0,1,2.47,3.93,17.5,17.5,0,0,1-.37,11.92,13.11,13.11,0,0,1-3.63,4.86,16.64,16.64,0,0,1-5.89,3.13,26.56,26.56,0,0,1-8,1.1,35.9,35.9,0,0,1-7.29-.66,46.65,46.65,0,0,1-6.83-2.07,37.14,37.14,0,0,1,.93-5c.44-1.75,1-3.54,1.6-5.36a27.55,27.55,0,0,0,10.66,2.66,11.16,11.16,0,0,0,5.29-1,3.71,3.71,0,0,0,1.9-3.56,3.9,3.9,0,0,0-.4-1.84,4,4,0,0,0-1.06-1.3,7.46,7.46,0,0,0-1.5-.9c-.56-.24-1.12-.47-1.7-.69l-3.73-1.4a23.76,23.76,0,0,1-4.36-2.07A13.73,13.73,0,0,1,396,743a12,12,0,0,1-2.16-3.76,14.8,14.8,0,0,1-.77-5,15.43,15.43,0,0,1,1.2-6.26,13,13,0,0,1,3.36-4.63,14.32,14.32,0,0,1,5.23-2.86,22.56,22.56,0,0,1,6.86-1,31.42,31.42,0,0,1,6.57.67,52.78,52.78,0,0,1,6.76,1.93,33.89,33.89,0,0,1-1,4.69,30,30,0,0,1-1.76,4.83c-1.16-.48-2.51-1-4.07-1.53a18.09,18.09,0,0,0-5.79-.8,10.38,10.38,0,0,0-2,.2,6.12,6.12,0,0,0-1.73.63,3.37,3.37,0,0,0-1.23,1.2,3.62,3.62,0,0,0-.47,1.9,3.35,3.35,0,0,0,1.27,2.87,12.47,12.47,0,0,0,3,1.59Z"/><path d="M438.44,730.73H427.32a22.79,22.79,0,0,1,0-10.39h34c.18,1,.31,1.89.4,2.73a22.51,22.51,0,0,1,.13,2.4,31.93,31.93,0,0,1-.53,5.26H450.24V768a36.31,36.31,0,0,1-5.87.6,35.61,35.61,0,0,1-5.93-.6Z"/></g></g></svg>