<svg xmlns="http://www.w3.org/2000/svg" viewBox="0 0 533.83 117.76"><defs><style>.cls-1{fill:#50d292;}.cls-2{fill:none;stroke:#50d292;stroke-miterlimit:10;stroke-width:0px;}</style></defs><g id="Layer_2" data-name="Layer 2"><g id="Layer_1-2" data-name="Layer 1"><path class="cls-1" d="M162.29,70.66c0,15.79-9.44,26.29-24,26.29-6.74,0-12.22-2.7-15.88-7.51v6.93H105.77V24.93h16.66V51.31a18.89,18.89,0,0,1,15.5-7.41C152.56,43.9,162.29,54.58,162.29,70.66Zm-16.76-.48c0-7.89-4.71-13.48-11.64-13.48-6.75,0-11.46,5.59-11.46,13.48,0,8.09,4.71,13.58,11.46,13.58C140.82,83.76,145.53,78.17,145.53,70.18Z"/><path class="cls-1" d="M217.17,62.48V96.37H200.9v-6c-3.37,4.43-8.86,6.74-15.89,6.74-11.07,0-17.81-6.74-17.81-16.27,0-9.82,7-15.6,19.93-15.69H200.8v-.77c0-5.11-3.37-8.19-10.11-8.19-4.33,0-10,1.54-15.5,4.33l-4.72-11c8.09-3.76,15.41-5.88,24.07-5.88C208.79,43.7,217.07,50.73,217.17,62.48ZM200.8,78.75V74.13H190.31c-5,0-7.51,1.73-7.51,5.58s2.69,6.17,7.31,6.17C195.31,85.88,199.74,83,200.8,78.75Z"/><path class="cls-1" d="M269,49.58l-5.68,10.78c-6.26-3.37-12-5.2-16.37-5.2-3,0-5.1,1.16-5.1,3.56,0,7.13,27.34,3.66,27.24,21.76,0,10.69-9.34,16.56-21.85,16.56-8.67,0-17-2.5-23.3-7.31l5.29-10.59c5.88,4.14,12.62,6.45,18.39,6.45,3.28,0,5.68-1.16,5.68-3.56,0-7.61-26.86-3.66-26.76-21.86,0-10.69,9.05-16.47,21.08-16.47A42.44,42.44,0,0,1,269,49.58Z"/><path class="cls-1" d="M318.36,49.58l-5.68,10.78c-6.26-3.37-12-5.2-16.37-5.2-3,0-5.1,1.16-5.1,3.56,0,7.13,27.34,3.66,27.24,21.76,0,10.69-9.34,16.56-21.85,16.56-8.67,0-17-2.5-23.3-7.31l5.29-10.59c5.88,4.14,12.62,6.45,18.39,6.45,3.28,0,5.68-1.16,5.68-3.56,0-7.61-26.86-3.66-26.76-21.86C275.9,49.48,285,43.7,297,43.7A42.44,42.44,0,0,1,318.36,49.58Z"/><path class="cls-1" d="M330.78,96.37V24.93h7.51V96.37Z"/><path class="cls-1" d="M365.63,31.09a4.92,4.92,0,1,1-9.82,0,4.92,4.92,0,1,1,9.82,0Zm-8.57,65.28V45.63h7.41V96.37Z"/><path class="cls-1" d="M429.18,65.08V96.37h-7.51V67.1c0-8.95-5.4-14.25-14.35-14.25-10,.1-16.18,6.65-17,16.27V96.37h-7.51V45.63h7.51V56.8c3.56-7.7,10.4-11.36,19.64-11.46C422.05,45.34,429.18,52.85,429.18,65.08Z"/><path class="cls-1" d="M489.64,73.94h-41.4c1.35,9.91,8.57,16.17,18.39,16.17a21.15,21.15,0,0,0,15.69-6.35l4.14,4.43c-4.81,5.39-11.94,8.47-20.41,8.47-14.92,0-25.22-10.49-25.22-25.61S451.22,45.44,466,45.44C482.32,45.34,490.41,56.7,489.64,73.94Zm-6.74-6.16c-.48-9.73-7-15.89-16.94-15.89-9.63,0-16.57,6.26-17.72,15.89Z"/><path class="cls-1" d="M532.2,50l-2.89,6a26.84,26.84,0,0,0-13.77-4.14c-5.68,0-10,2-10,6.74,0,11.27,28.3,5.49,28.3,23.69,0,10-8.85,14.44-18.58,14.44-7.22,0-14.63-2.5-19.45-7.12l2.89-5.69a25.67,25.67,0,0,0,16.85,6.46c6,0,10.78-2.22,10.88-7.23.29-12.22-28.11-6-28-24,0-9.73,8.38-13.77,17.62-13.77A29.33,29.33,0,0,1,532.2,50Z"/><path class="cls-2" d="M66.91,50.4H66.5c-7.3,0-13.52,8.6-14,19.49C52,81,57.66,90.23,65.13,90.56h.41c7.29,0,13.52-8.61,14-19.49C80,60,74.37,50.73,66.91,50.4Zm8.16,20.48c-.4,9.1-5.25,15.22-9.53,15.22h-.21c-2.81-.12-4.77-2.66-5.69-4.16A16.82,16.82,0,0,1,58.28,79,5.46,5.46,0,0,0,62,80.87c3.86.17,7.2-4.34,7.45-10.08s-2.67-10.53-6.53-10.7a5.63,5.63,0,0,0-4.14,1.74c1.89-4.35,4.92-7,7.72-7h.21c2.8.13,4.76,2.67,5.68,4.17A21.44,21.44,0,0,1,75.07,70.88Z"/><path class="cls-2" d="M86.3,18.44,67.73,10,49.61,1.89a10.26,10.26,0,0,0-8.37,0L23.12,10,4.58,18.42l0,0C2,19.62,1,23.51,1,25.53V91.12a10.2,10.2,0,0,0,6,9.31l34.21,15.43a10.25,10.25,0,0,0,8.4,0l34.21-15.43a10.2,10.2,0,0,0,6-9.31V24.89C89.67,22.77,88.62,19.49,86.3,18.44ZM12.15,21.55l3.31-1.5h0l10.11-4.58,1.56-.7,3.15-1.42,1.09-.49,12-5.36h0a5,5,0,0,1,2.11-.43,5.16,5.16,0,0,1,1.9.34l.25.11,14.84,6.66,3,1.36,13.32,6a1.94,1.94,0,0,1,0,3.53L47.56,39.11l-.07,0a5.41,5.41,0,0,1-4.18,0l-31.16-14A1.94,1.94,0,0,1,12.15,21.55ZM83.89,92.62a1.93,1.93,0,0,1-1.14,1.76l-35.37,16-2-14.85-2,14.84L8.09,94.38A1.92,1.92,0,0,1,7,92.62V32.26A1.93,1.93,0,0,1,9.68,30.5L43,45.51l.5.22,2,14.8,1.95-14.8.5-.22,33.29-15a1.94,1.94,0,0,1,2.73,1.76Z"/><path class="cls-1" d="M66.91,50.4H66.5c-7.3,0-13.52,8.6-14,19.49C52,81,57.66,90.23,65.13,90.56h.41c7.29,0,13.52-8.61,14-19.49C80,60,74.37,50.73,66.91,50.4Zm8.16,20.48c-.4,9.1-5.25,15.22-9.53,15.22h-.21c-2.81-.12-4.77-2.66-5.69-4.16A16.82,16.82,0,0,1,58.28,79,5.46,5.46,0,0,0,62,80.87c3.86.17,7.2-4.34,7.45-10.08s-2.67-10.53-6.53-10.7a5.63,5.63,0,0,0-4.14,1.74c1.89-4.35,4.92-7,7.72-7h.21c2.8.13,4.76,2.67,5.68,4.17A21.44,21.44,0,0,1,75.07,70.88Z"/><path class="cls-1" d="M86.3,18.44,67.73,10,49.61,1.89a10.26,10.26,0,0,0-8.37,0L23.12,10,4.58,18.42l0,0C2,19.62,1,23.51,1,25.53V91.12a10.2,10.2,0,0,0,6,9.31l34.21,15.43a10.25,10.25,0,0,0,8.4,0l34.21-15.43a10.2,10.2,0,0,0,6-9.31V24.89C89.67,22.77,88.62,19.49,86.3,18.44ZM12.15,21.55l3.31-1.5h0l10.11-4.58,1.56-.7,3.15-1.42,1.09-.49,12-5.36h0a5,5,0,0,1,2.11-.43,5.16,5.16,0,0,1,1.9.34l.25.11,14.84,6.66,3,1.36,13.32,6a1.94,1.94,0,0,1,0,3.53L47.56,39.11l-.07,0a5.41,5.41,0,0,1-4.18,0l-31.16-14A1.94,1.94,0,0,1,12.15,21.55ZM83.89,92.62a1.93,1.93,0,0,1-1.14,1.76l-35.37,16-2-14.85-2,14.84L8.09,94.38A1.92,1.92,0,0,1,7,92.62V32.26A1.93,1.93,0,0,1,9.68,30.5L43,45.51l.5.22,2,14.8,1.95-14.8.5-.22,33.29-15a1.94,1.94,0,0,1,2.73,1.76Z"/></g></g></svg>