<svg xmlns="http://www.w3.org/2000/svg" viewBox="0 0 780.91 890.73"><defs><style>.cls-1{fill:#282830;}.cls-1,.cls-3,.cls-4{fill-rule:evenodd;}.cls-2{fill:#ebebc4;}.cls-3{fill:#dbdbdb;}.cls-4{fill:#bfbfbf;}</style></defs><g id="Layer_2" data-name="Layer 2"><g id="Layer_1-2" data-name="Layer 1"><polygon class="cls-1" points="593.83 623.62 187.08 623.62 187.08 658.99 129.61 658.99 129.61 890.73 651.31 890.73 651.31 658.99 593.83 658.99 593.83 623.62"/><rect class="cls-2" x="239.91" y="707.98" width="301.1" height="133.75"/><path class="cls-3" d="M636.94,35.37l4-35.37H139.32l4,35.37H43A37.33,37.33,0,0,0,6.59,64,245.68,245.68,0,0,0,0,120.59c0,112,75.74,208.57,183.71,247.85C206,446.8,268.39,493.54,338.53,508.71V623.62H442.39V508.51c69.76-15.36,131.72-61.95,154-139.77,108.4-39.11,184.5-135.88,184.5-248.15A246.22,246.22,0,0,0,774.33,64a37.33,37.33,0,0,0-36.39-28.61ZM52.17,120.59v-.39A37.34,37.34,0,0,1,89.61,83.12h59l25.6,228.38C101.13,273.86,52.17,202.15,52.17,120.59ZM605.94,311.88,631.59,83.12h93.92c1.74,12.67,3.24,24.58,3.24,37.47C728.75,202.42,679.47,274.35,605.94,311.88Z"/><path class="cls-4" d="M636.94,35.37l4-35.37H390.46V623.62h51.93V508.51c69.76-15.36,131.72-61.95,154-139.77,108.4-39.11,184.5-135.88,184.5-248.15A246.34,246.34,0,0,0,775,67.06a40.55,40.55,0,0,0-39.59-31.69Zm-31,276.51L631.59,83.12H691.3a37.35,37.35,0,0,1,37.45,37.08v.39C728.75,202.42,679.47,274.35,605.94,311.88Z"/><path d="M313.23,826.84l-1.77-4.27,26.22-34.47a126.47,126.47,0,0,0,10.09-15.39q3.32-6.26,3.31-11.26a8.93,8.93,0,0,0-3.31-7.29q-3.31-2.73-9.21-2.73a27.23,27.23,0,0,0-10.45,2,69.84,69.84,0,0,0-8.69,4.2,104.14,104.14,0,0,1-4.13-10.46,41.28,41.28,0,0,1-2.06-10.9,58.08,58.08,0,0,1,12.23-4.86,59.59,59.59,0,0,1,16.34-2.06,52.11,52.11,0,0,1,13.92,1.77,32.06,32.06,0,0,1,11.12,5.37,25.15,25.15,0,0,1,7.37,9.06,29.44,29.44,0,0,1,2.65,13,36.69,36.69,0,0,1-1.33,10,54,54,0,0,1-3.39,9,65.42,65.42,0,0,1-4.63,8.1q-2.58,3.82-5.09,7.36L354,804.75H379.8a51.9,51.9,0,0,1,1.33,10.75,54,54,0,0,1-1.33,11.34Z"/><path d="M384,729.29c1-.17,1.89-.31,2.7-.4a21.49,21.49,0,0,1,2.37-.14,20.57,20.57,0,0,1,2.54.17c.88.12,1.63.24,2.27.37l15.69,26.53V729.29c1.18-.17,2.24-.31,3.18-.4s1.81-.14,2.58-.14a23.32,23.32,0,0,1,2.43.14c.86.09,1.76.23,2.71.4l-.07,48.32a17.63,17.63,0,0,1-2,.41,18.5,18.5,0,0,1-2.77.2,17.56,17.56,0,0,1-3.05-.24c-.9-.16-1.56-.28-2-.37l-15.77-26.39v26.39a27,27,0,0,1-5.41.61,27.87,27.87,0,0,1-5.48-.61Z"/><path d="M442,728.35q12.78,0,19.42,6.39t6.63,19q0,12.86-6.77,18.85t-20,6c-2.26,0-4.43-.1-6.53-.3s-4.16-.44-6.19-.71V729.29c.68-.09,1.53-.19,2.57-.3s2.17-.21,3.38-.3,2.47-.17,3.76-.24S440.8,728.35,442,728.35ZM440.53,768a6.91,6.91,0,0,0,1.08.07h1.28a18.67,18.67,0,0,0,5-.64,9.23,9.23,0,0,0,4-2.27,11.14,11.14,0,0,0,2.68-4.4,21.76,21.76,0,0,0,1-7.1,21.23,21.23,0,0,0-1-7.11,11.85,11.85,0,0,0-2.67-4.5,9.54,9.54,0,0,0-3.89-2.37,15.4,15.4,0,0,0-4.67-.71c-.9,0-1.56,0-2,0l-.81,0Z"/></g></g></svg>