<svg xmlns="http://www.w3.org/2000/svg" viewBox="0 0 533.83 117.76"><defs><style
    >.cls-1{fill:#50d292;}.cls-2{fill:none;stroke:#50d292;stroke-miterlimit:10;stroke-width:0px;}</style></defs><g
    id="Layer_2"
    data-name="Layer 2"
  ><g id="Layer_1-2" data-name="Layer 1"><path
        class="cls-2"
        d="M86.3,18.44,67.73,10,49.61,1.89a10.26,10.26,0,0,0-8.37,0L23.12,10,4.58,18.42l0,0C2,19.62,1,23.51,1,25.53V91.12a10.2,10.2,0,0,0,6,9.31l34.21,15.43a10.25,10.25,0,0,0,8.4,0l34.21-15.43a10.2,10.2,0,0,0,6-9.31V24.89C89.67,22.77,88.62,19.49,86.3,18.44ZM12.15,21.55l3.31-1.5h0l10.11-4.58,1.56-.7,3.15-1.42,1.09-.49,12-5.36h0a5,5,0,0,1,2.11-.43,5.16,5.16,0,0,1,1.9.34l.25.11,14.84,6.66,3,1.36,13.32,6a1.94,1.94,0,0,1,0,3.53L47.56,39.11l-.07,0a5.41,5.41,0,0,1-4.18,0l-31.16-14A1.94,1.94,0,0,1,12.15,21.55ZM83.89,92.62a1.93,1.93,0,0,1-1.14,1.76l-35.37,16-2-14.85-2,14.84L8.09,94.38A1.92,1.92,0,0,1,7,92.62V32.26A1.93,1.93,0,0,1,9.68,30.5L43,45.51l.5.22,2,14.8,1.95-14.8.5-.22,33.29-15a1.94,1.94,0,0,1,2.73,1.76Z"
      /><path
        class="cls-1"
        d="M66.91,50.4H66.5c-7.3,0-13.52,8.6-14,19.49C52,81,57.66,90.23,65.13,90.56h.41c7.29,0,13.52-8.61,14-19.49C80,60,74.37,50.73,66.91,50.4Zm8.16,20.48c-.4,9.1-5.25,15.22-9.53,15.22h-.21c-2.81-.12-4.77-2.66-5.69-4.16A16.82,16.82,0,0,1,58.28,79,5.46,5.46,0,0,0,62,80.87c3.86.17,7.2-4.34,7.45-10.08s-2.67-10.53-6.53-10.7a5.63,5.63,0,0,0-4.14,1.74c1.89-4.35,4.92-7,7.72-7h.21c2.8.13,4.76,2.67,5.68,4.17A21.44,21.44,0,0,1,75.07,70.88Z"
      /><path
        class="cls-1"
        d="M86.3,18.44,67.73,10,49.61,1.89a10.26,10.26,0,0,0-8.37,0L23.12,10,4.58,18.42l0,0C2,19.62,1,23.51,1,25.53V91.12a10.2,10.2,0,0,0,6,9.31l34.21,15.43a10.25,10.25,0,0,0,8.4,0l34.21-15.43a10.2,10.2,0,0,0,6-9.31V24.89C89.67,22.77,88.62,19.49,86.3,18.44ZM12.15,21.55l3.31-1.5h0l10.11-4.58,1.56-.7,3.15-1.42,1.09-.49,12-5.36h0a5,5,0,0,1,2.11-.43,5.16,5.16,0,0,1,1.9.34l.25.11,14.84,6.66,3,1.36,13.32,6a1.94,1.94,0,0,1,0,3.53L47.56,39.11l-.07,0a5.41,5.41,0,0,1-4.18,0l-31.16-14A1.94,1.94,0,0,1,12.15,21.55ZM83.89,92.62a1.93,1.93,0,0,1-1.14,1.76l-35.37,16-2-14.85-2,14.84L8.09,94.38A1.92,1.92,0,0,1,7,92.62V32.26A1.93,1.93,0,0,1,9.68,30.5L43,45.51l.5.22,2,14.8,1.95-14.8.5-.22,33.29-15a1.94,1.94,0,0,1,2.73,1.76Z"
      /></g></g></svg>
