<svg xmlns="http://www.w3.org/2000/svg" viewBox="0 0 780.91 890.73"><defs><style>.cls-1{fill:#282830;}.cls-1,.cls-3,.cls-4{fill-rule:evenodd;}.cls-2{fill:#ebebc4;}.cls-3{fill:#a86427;}.cls-4{fill:#7f4718;}</style></defs><g id="Layer_2" data-name="Layer 2"><g id="Layer_1-2" data-name="Layer 1"><polygon class="cls-1" points="593.83 623.62 187.08 623.62 187.08 658.99 129.61 658.99 129.61 890.73 651.31 890.73 651.31 658.99 593.83 658.99 593.83 623.62"/><rect class="cls-2" x="239.91" y="707.98" width="301.1" height="133.75"/><path class="cls-3" d="M636.94,35.37l4-35.37H139.32l4,35.37H43A37.33,37.33,0,0,0,6.59,64,245.68,245.68,0,0,0,0,120.59c0,112,75.74,208.57,183.71,247.85C206,446.8,268.39,493.54,338.53,508.71V623.62H442.39V508.51c69.76-15.36,131.72-61.95,154-139.77,108.4-39.11,184.5-135.88,184.5-248.15A246.22,246.22,0,0,0,774.33,64a37.33,37.33,0,0,0-36.39-28.61ZM52.17,120.59v-.39A37.34,37.34,0,0,1,89.61,83.12h59l25.6,228.38C101.13,273.86,52.17,202.15,52.17,120.59ZM605.94,311.88,631.59,83.12h93.92c1.74,12.67,3.24,24.58,3.24,37.47C728.75,202.42,679.47,274.35,605.94,311.88Z"/><path class="cls-4" d="M636.94,35.37l4-35.37H390.46V623.62h51.93V508.51c69.76-15.36,131.72-61.95,154-139.77,108.4-39.11,184.5-135.88,184.5-248.15A246.34,246.34,0,0,0,775,67.06a40.55,40.55,0,0,0-39.59-31.69Zm-31,276.51L631.59,83.12H691.3a37.35,37.35,0,0,1,37.45,37.08v.39C728.75,202.42,679.47,274.35,605.94,311.88Z"/><path d="M315.19,750.72A45.37,45.37,0,0,1,314,740.61a44.7,44.7,0,0,1,1.19-10h56.27l2.4,3.72L355,767q9.57,1.72,14.9,8.32t5.32,17a34,34,0,0,1-3,14.63A30.33,30.33,0,0,1,364,817.57a35.93,35.93,0,0,1-12.37,6.51,51.28,51.28,0,0,1-15.24,2.2q-3.72,0-6.91-.2a49.4,49.4,0,0,1-6.32-.8q-3.14-.6-6.25-1.46a62.34,62.34,0,0,1-6.72-2.33,38.59,38.59,0,0,1,1.93-10,49.88,49.88,0,0,1,3.92-9q5.06,1.72,9.71,2.86a41.87,41.87,0,0,0,9.85,1.13q7.84,0,12.43-3.19t4.59-9.71a10,10,0,0,0-1.19-4.93,10.68,10.68,0,0,0-3.2-3.52,15.31,15.31,0,0,0-4.52-2.13,18.94,18.94,0,0,0-5.32-.73c-1.42,0-2.91.07-4.46.2a31.53,31.53,0,0,0-5.38,1l-2.93-4.39,16.36-28.34Z"/><path d="M390.42,729.28l6.06-.63a54.67,54.67,0,0,1,5.86-.3,39.13,39.13,0,0,1,7.37.7,19.78,19.78,0,0,1,6.56,2.44,13.79,13.79,0,0,1,4.69,4.76,14.68,14.68,0,0,1,1.8,7.63,16.14,16.14,0,0,1-.57,4.46,15.11,15.11,0,0,1-1.47,3.51,13.69,13.69,0,0,1-2,2.68,17.86,17.86,0,0,1-2.17,1.94L427,777.1c-1.07.17-2.24.31-3.51.4s-2.43.13-3.45.13-1.93,0-3.12-.13a28.07,28.07,0,0,1-3.11-.4l-9.51-21.9.61-.34a7.34,7.34,0,0,0,1.77-1.34,12.2,12.2,0,0,0,1.81-2.24,14,14,0,0,0,1.4-2.91,10,10,0,0,0,.57-3.35q0-3.35-1.87-4.89a7.08,7.08,0,0,0-4.62-1.54,8.9,8.9,0,0,0-1.14.07,2.52,2.52,0,0,0-.6.13V777.1a36.42,36.42,0,0,1-5.83.6,35.93,35.93,0,0,1-6-.6Z"/><path d="M445,728.35q12.66,0,19.22,6.32t6.57,18.85q0,12.74-6.7,18.65t-19.82,5.93c-2.23,0-4.39-.1-6.46-.3s-4.12-.44-6.13-.7V729.28l2.54-.3c1-.11,2.15-.21,3.35-.3s2.45-.16,3.72-.23S443.79,728.35,445,728.35Zm-1.47,39.24a8.49,8.49,0,0,0,1.07.06h1.28a18.63,18.63,0,0,0,4.92-.63,9.11,9.11,0,0,0,4-2.25,11,11,0,0,0,2.65-4.35,21.6,21.6,0,0,0,1-7,21.09,21.09,0,0,0-1-7,11.85,11.85,0,0,0-2.64-4.45,9.42,9.42,0,0,0-3.85-2.35,15.48,15.48,0,0,0-4.62-.7c-.9,0-1.54,0-1.94,0l-.81,0Z"/></g></g></svg>